<svg width="14" height="18" viewBox="0 0 14 18" fill="none" xmlns="http://www.w3.org/2000/svg">
<path d="M5 13.2963H9C9.55 13.2963 10 12.8463 10 12.2963V7.29625H11.59C12.48 7.29625 12.93 6.21625 12.3 5.58625L7.71 0.996251C7.32 0.606251 6.69 0.606251 6.3 0.996251L1.71 5.58625C1.08 6.21625 1.52 7.29625 2.41 7.29625H4V12.2963C4 12.8463 4.45 13.2963 5 13.2963ZM1 15.2963H13C13.55 15.2963 14 15.7463 14 16.2963C14 16.8463 13.55 17.2963 13 17.2963H1C0.45 17.2963 0 16.8463 0 16.2963C0 15.7463 0.45 15.2963 1 15.2963Z" fill="#1e1e2e"/>
</svg>

