<svg width="20" height="20" viewBox="0 0 20 20" fill="none" xmlns="http://www.w3.org/2000/svg">
<path d="M2.33999 0.934998L0.929993 2.345L5.28999 6.705L4.99999 7.005H0.999993V13.005H4.99999L9.99999 18.005V11.415L14.18 15.595C13.53 16.085 12.8 16.475 12 16.705V18.765C13.34 18.465 14.57 17.845 15.61 17.015L17.66 19.065L19.07 17.655L2.33999 0.934998ZM7.99999 13.175L5.82999 11.005H2.99999V9.005H5.82999L6.70999 8.125L7.99999 9.415V13.175ZM17 10.005C17 10.825 16.85 11.615 16.59 12.345L18.12 13.875C18.68 12.705 19 11.395 19 10.005C19 5.725 16.01 2.145 12 1.235V3.295C14.89 4.155 17 6.835 17 10.005ZM9.99999 2.005L8.11999 3.885L9.99999 5.765V2.005ZM14.5 10.005C14.5 8.235 13.48 6.715 12 5.975V7.765L14.48 10.245C14.49 10.165 14.5 10.085 14.5 10.005Z" fill="black"/>
</svg>

