<svg width="20" height="20" viewBox="0 0 20 20" fill="none" xmlns="http://www.w3.org/2000/svg">
<path d="M12.39 9.065L14 10.675V9.065H12.39ZM15 5.065H11V6.965H15C16.71 6.965 18.1 8.355 18.1 10.065C18.1 11.335 17.33 12.435 16.23 12.905L17.63 14.305C19.05 13.425 20 11.855 20 10.065C20 7.305 17.76 5.065 15 5.065ZM0 2.335L3.11 5.445C1.29 6.185 0 7.975 0 10.065C0 12.825 2.24 15.065 5 15.065H9V13.165H5C3.29 13.165 1.9 11.775 1.9 10.065C1.9 8.475 3.11 7.165 4.66 6.995L6.73 9.065H6V11.065H8.73L11 13.335V15.065H12.73L16.74 19.075L18.15 17.665L1.41 0.925003L0 2.335Z" fill="#1e1e2e"/>
</svg>
